<!-- Generator: Adobe Illustrator 21.0.1, SVG Export Plug-In  -->
<svg version="1.1"
	 xmlns="http://www.w3.org/2000/svg" xmlns:xlink="http://www.w3.org/1999/xlink" xmlns:a="http://ns.adobe.com/AdobeSVGViewerExtensions/3.0/"
	 x="0px" y="0px" width="595.28px" height="122.042px" viewBox="0 0 595.28 122.042"
	 style="enable-background:new 0 0 595.28 122.042;" xml:space="preserve">
<style type="text/css">
	.st0{fill-rule:evenodd;clip-rule:evenodd;fill:#E0A682;}
	.st1{fill-rule:evenodd;clip-rule:evenodd;fill:#F6BA95;}
	.st2{fill-rule:evenodd;clip-rule:evenodd;fill:#EA4D3E;}
	.st3{fill-rule:evenodd;clip-rule:evenodd;fill:#27AAE2;}
	.st4{fill-rule:evenodd;clip-rule:evenodd;fill:#34495A;}
	.st5{fill-rule:evenodd;clip-rule:evenodd;fill:#571902;}
	.st6{fill-rule:evenodd;clip-rule:evenodd;fill:#EBA148;}
	.st7{fill:none;stroke:#000000;stroke-width:4;stroke-miterlimit:10;}
</style>
<defs>
</defs>
<polygon class="st0" points="20.453,95.35 69.281,79.162 82.479,85.562 121.999,44.735 127.661,72.282 86.461,93.911 
	21.029,101.597 20.453,95.35 "/>
<polygon class="st1" points="18.987,95.936 67.346,76.615 76.756,81.775 121.869,45.114 132.938,70.273 80.277,90.328 
	19.22,102.206 18.987,95.936 "/>
<path class="st2" d="M121.869,45.114c5.379-4.23,11.899-4.909,20.633,1.261l-0.252,20.628l-9.312,3.27l-5.276,2.008l-5.277,2.01
	l-9.924-22.002L121.869,45.114L121.869,45.114z"/>
<path class="st3" d="M142.502,46.375l10.09,0.042c20.772-3.479,31.293-16.286,43.4-11.673l-7.298,12.957l-0.628,16.354
	c-11.468,2.579-14.405,2.507-16.478-2.214l-18.745,0.328l-10.593,4.835L142.502,46.375L142.502,46.375z"/>
<polygon class="st0" points="199.036,83.41 209.048,113.586 224.745,114.344 227.683,117.149 219.982,118.042 207.617,117.792 
	203.746,115.788 191.026,87.196 185.498,47.235 198.396,46.88 199.036,83.41 "/>
<path class="st1" d="M195.991,34.744l7.446,0.252l6.582-2.225c4.355-1.396,0.998-10.948,16.198-13.026l2.159-3.042
	c-11.036,4.362-21.752,6.337-26.331-6.606c10.183,10.858,19.755-17.55,37.193-8.16c4.738,2.551,6.359,13.878-2.084,16.967
	l-1.658,4.606c5.661,4.412,8.303,14.023-0.881,23.284c-2.752,1.195-6.59,2.179-8.858,2.905c-1.112,0.357-3.812,3.686-4.853,3.951
	c-1.578,0.401-1.285-1.962-2.688-2.002c-2.069-0.06-3.401,0.337-5.803,0.415l-2.701-6.809l-5.692,2.836l-3.627,7.708l-5.408,27.614
	l6.666,30.177l15.613,0.756l2.628,2.806l-7.8,0.893l-12.338-0.25l-3.648-2.004l-9.55-28.592l-1.131-41.201L195.991,34.744z"/>
<path class="st4" d="M18.987,95.936l-6.082-1.905L10,96.462l2.765,17.906c2.055,3.855,3.759,5.398,4.805,2.626
	c-0.751-8.01-0.077-12.285,2.363-14.927L18.987,95.936L18.987,95.936z"/>
<path class="st5" d="M209.523,32.937l0.495-0.167c4.356-1.396,0.998-10.949,16.199-13.027l2.158-3.042
	c-11.036,4.361-21.752,6.337-26.331-6.606c10.184,10.859,19.755-17.55,37.193-8.16c4.738,2.551,6.359,13.878-2.084,16.967
	l-1.658,4.606c5.661,4.413,8.303,14.023-0.881,23.284c-6.044,1.106-7.631-3.549-9.293-10.766c-2.746,1.82-5.292,2.354-7.665,1.752
	c1.872-1.628,2.994-3.64,2.739-6.362c-2.973,1.317-6.746,2.577-10.872,1.524L209.523,32.937L209.523,32.937z"/>
<polygon class="st6" points="237.154,18.903 228.376,16.701 226.218,19.743 235.496,23.508 237.154,18.903 "/>
<line class="st7" x1="0" y1="120.042" x2="595.28" y2="120.042"/>
</svg>